<?xml version="1.0" encoding="UTF-8"?>
<!DOCTYPE svg PUBLIC "-//W3C//DTD SVG 1.1//EN" "http://www.w3.org/Graphics/SVG/1.1/DTD/svg11.dtd">
<!-- Creator: CorelDRAW X6 -->
<svg xmlns="http://www.w3.org/2000/svg" xml:space="preserve" width="100%" height="100%" version="1.1" style="shape-rendering:geometricPrecision; text-rendering:geometricPrecision; image-rendering:optimizeQuality; fill-rule:evenodd; clip-rule:evenodd"
viewBox="0 0 500 500"
 xmlns:xlink="http://www.w3.org/1999/xlink">
 <defs>
  <style type="text/css">
   <![CDATA[

    .fil2 {fill:#0062A4}
    .fil6 {fill:#8BD1FF}

    .fil1 {fill:url(#id0)}
    .fil5 {fill:url(#id1)}
    .fil3 {fill:url(#id2)}
    .fil4 {fill:url(#id3)}
   ]]>
  </style>
  <linearGradient id="id0" gradientUnits="userSpaceOnUse" x1="102.734" y1="250.005" x2="397.272" y2="250.005">
   <stop offset="0" style="stop-color:#006DB6"/>
   <stop offset="0.141176" style="stop-color:#008EED"/>
   <stop offset="0.501961" style="stop-color:#46B5FF"/>
   <stop offset="0.839216" style="stop-color:#008EED"/>
   <stop offset="1" style="stop-color:#006DB6"/>
  </linearGradient>
  <linearGradient id="id1" gradientUnits="userSpaceOnUse" x1="250.001" y1="64.87" x2="250.001" y2="145.83">
   <stop offset="0" style="stop-color:#CBCBCB"/>
   <stop offset="1" style="stop-color:white"/>
  </linearGradient>
  <linearGradient id="id2" gradientUnits="userSpaceOnUse" x1="318.151" y1="246.284" x2="181.856" y2="85.413">
   <stop offset="0" style="stop-color:#F2F2F2"/>
   <stop offset="1" style="stop-color:#979797"/>
  </linearGradient>
  <radialGradient id="id3" gradientUnits="objectBoundingBox" cx="50%" cy="50%" r="48%" fx="50%" fy="50%">
   <stop offset="0" style="stop-color:#F2F2F2"/>
   <stop offset="1" style="stop-color:#D8D8D8"/>
  </radialGradient>
 </defs>
 <g id="Layer_x0020_1">
  <metadata id="CorelCorpID_0Corel-Layer"/>

  <path class="fil1" d="M250 19c81,0 147,66 147,147 0,25 -6,48 -17,68l-116 239c-3,5 -8,8 -14,8 -6,0 -11,-3 -14,-8l-116 -239c-11,-20 -17,-43 -17,-68 0,-81 66,-147 147,-147z"/>
  <path class="fil2" d="M397 162c0,1 0,3 0,4 0,25 -6,48 -17,68l-116 239c-3,5 -8,8 -14,8 -6,0 -11,-3 -14,-8l-116 -239c-11,-20 -17,-43 -17,-68 0,-1 0,-3 0,-4 0,24 6,46 17,65l116 239c3,5 8,8 14,8 6,0 11,-3 14,-8l116 -239c11,-19 17,-41 17,-65z"/>
  <circle class="fil3" cx="250" cy="166" r="110"/>
  <circle class="fil4" cx="250" cy="166" r="104"/>
  <path class="fil5" d="M250 61c39,0 72,21 90,52 -23,23 -55,36 -90,36 -35,0 -67,-13 -90,-36 18,-31 51,-52 90,-52z"/>
  <path class="fil6" d="M250 19c81,0 147,66 147,147 0,1 0,2 0,3 -1,-81 -66,-145 -147,-145 -81,0 -146,64 -147,145 0,-1 0,-2 0,-3 0,-81 66,-147 147,-147z"/>
 </g>
</svg>
